<?xml version="1.0" encoding="UTF-8" standalone="no"?>
<!DOCTYPE svg PUBLIC "-//W3C//DTD SVG 1.1//EN" "http://www.w3.org/Graphics/SVG/1.1/DTD/svg11.dtd">
<svg width="100%" height="100%" viewBox="0 0 1080 1920" version="1.1" xmlns="http://www.w3.org/2000/svg" xmlns:xlink="http://www.w3.org/1999/xlink" xml:space="preserve" xmlns:serif="http://www.serif.com/" style="fill-rule:evenodd;clip-rule:evenodd;stroke-linejoin:round;stroke-miterlimit:2;">
    <g transform="matrix(1,0,0,1,-2.13084,-2.13084)">
        <g transform="matrix(2.14882e-16,3.50929,-2.10771,1.2906e-16,1290.94,732.728)">
            <rect x="-234.078" y="20.073" width="621.33" height="702.054"/>
        </g>
        <g transform="matrix(6.12323e-17,1,-1,6.12323e-17,1082.13,2.13117)">
            <g transform="matrix(9.51092,0,0,9.51092,-10593.8,-1807.09)">
                <g style="filter:url(#_Effect1);">
                    <circle cx="980.665" cy="487.397" r="246.106" style="fill:rgb(25,0,122);"/>
                </g>
            </g>
            <g transform="matrix(9.51092,0,0,9.51092,-8193.85,-6963.67)">
                <g style="filter:url(#_Effect2);">
                    <circle cx="980.665" cy="487.397" r="246.106" style="fill:rgb(25,0,122);fill-opacity:0.37;"/>
                </g>
            </g>
            <g transform="matrix(1.55913,0,0,1.55913,370.074,-324.615)">
                <g transform="matrix(1.42215,0,0,1.42215,-415.278,-136.631)">
                    <g style="filter:url(#_Effect3);">
                        <circle cx="980.665" cy="487.397" r="246.106" style="fill:rgb(25,0,122);"/>
                    </g>
                </g>
                <g transform="matrix(0.857269,0,0,0.857269,138.685,138.692)">
                    <g style="filter:url(#_Effect4);">
                        <circle cx="980.665" cy="487.397" r="246.106" style="fill:rgb(142,112,255);"/>
                    </g>
                </g>
                <g transform="matrix(0.545758,0,0,0.545758,444.173,290.521)">
                    <g style="filter:url(#_Effect5);">
                        <circle cx="980.665" cy="487.397" r="246.106" style="fill:rgb(212,201,255);"/>
                    </g>
                </g>
                <g transform="matrix(0.524103,0,0,0.619395,302.081,88.5328)">
                    <ellipse cx="1292.3" cy="755.559" rx="190.802" ry="161.448"/>
                </g>
            </g>
            <g transform="matrix(1,0,0,1,-2.57444e-16,4.20403)">
                <g transform="matrix(35.4115,0,0,33.4051,-8011.89,-11939.3)">
                    <path d="M253.503,410.696C253.503,394.807 242.863,373.423 221.884,373.423C242.863,373.423 253.503,357.129 253.503,336.15C253.503,350.322 257.531,362.445 267.298,368.76C271.904,371.737 277.785,373.423 285.121,373.423C262.227,373.423 253.503,394.807 253.503,410.696ZM253.495,408.082C254.362,393.181 262.657,374.95 282.434,373.435C276.314,373.07 271.295,371.449 267.254,368.836C258.241,363.009 254.096,352.248 253.495,339.492C252.87,350.687 249.063,360.293 242.131,366.414C237.562,370.448 231.635,372.97 224.363,373.435C242.667,374.953 252.455,393.182 253.495,408.082Z" style="fill:white;"/>
                </g>
                <g transform="matrix(29.3511,0,0,27.6881,-6475.56,-9804.42)">
                    <path d="M253.503,410.696C253.503,394.807 242.863,373.423 221.884,373.423C242.863,373.423 253.503,357.129 253.503,336.15C253.503,350.322 257.531,362.445 267.298,368.76C271.904,371.737 277.785,373.423 285.121,373.423C262.227,373.423 253.503,394.807 253.503,410.696ZM253.493,407.82C254.438,393.026 262.687,375.082 282.174,373.437C276.168,373.043 271.231,371.429 267.245,368.852C258.303,363.071 254.15,352.437 253.494,339.816C252.813,350.878 249.011,360.363 242.142,366.428C237.621,370.42 231.771,372.932 224.604,373.437C242.658,375.085 252.363,393.027 253.493,407.82Z" style="fill:white;"/>
                </g>
                <g transform="matrix(22.3401,0,0,21.0743,-4698.24,-7334.67)">
                    <path d="M253.503,410.696C253.503,394.807 242.863,373.423 221.884,373.423C242.863,373.423 253.503,357.129 253.503,336.15C253.503,350.322 257.531,362.445 267.298,368.76C271.904,371.737 277.785,373.423 285.121,373.423C262.227,373.423 253.503,394.807 253.503,410.696ZM253.49,407.392C254.558,392.774 262.731,375.29 281.752,373.441C275.929,373 271.124,371.4 267.229,368.881C258.402,363.175 254.235,352.746 253.491,340.342C252.724,351.19 248.929,360.479 242.162,366.454C237.719,370.378 231.993,372.874 224.997,373.442C242.646,375.293 252.216,392.776 253.49,407.392Z" style="fill:white;"/>
                </g>
                <g transform="matrix(14.616,0,0,13.7879,-2740.18,-4613.75)">
                    <path d="M253.503,410.696C253.503,394.807 242.863,373.423 221.884,373.423C242.863,373.423 253.503,357.129 253.503,336.15C253.503,350.322 257.531,362.445 267.298,368.76C271.904,371.737 277.785,373.423 285.121,373.423C262.227,373.423 253.503,394.807 253.503,410.696ZM253.484,406.594C254.77,392.314 262.799,375.653 280.974,373.45C275.485,372.929 270.922,371.358 267.192,368.946C258.576,363.375 254.386,353.317 253.485,341.311C252.564,351.767 248.787,360.703 242.208,366.512C237.907,370.309 232.408,372.774 225.721,373.451C242.636,375.657 251.958,392.316 253.484,406.594Z" style="fill:white;"/>
                </g>
                <g transform="matrix(8.77864,0,0,8.28125,-1260.39,-2557.45)">
                    <path d="M253.503,410.696C253.503,394.811 242.863,373.423 221.884,373.423C242.863,373.423 253.503,357.129 253.503,336.15C253.503,350.322 257.531,362.445 267.298,368.76C271.904,371.737 277.785,373.423 285.121,373.423C262.227,373.423 253.503,394.811 253.503,410.696ZM253.473,405.372C255.063,391.628 262.865,376.15 279.805,373.467C274.804,372.843 270.602,371.32 267.121,369.069C258.817,363.701 254.601,354.183 253.475,342.768C252.34,352.643 248.596,361.06 242.295,366.623C238.209,370.231 233.046,372.643 226.814,373.469C242.652,376.156 251.6,391.631 253.473,405.372Z" style="fill:white;"/>
                </g>
                <g transform="matrix(3.49936,0,0,3.30109,77.9196,-697.744)">
                    <path d="M253.503,410.696C253.503,394.811 242.863,373.423 221.884,373.423C242.863,373.423 253.503,357.129 253.503,336.15C253.503,350.322 257.531,362.445 267.298,368.76C271.904,371.737 277.785,373.423 285.121,373.423C262.227,373.423 253.503,394.811 253.503,410.696ZM253.433,402.139C255.672,389.887 262.829,377.149 276.825,373.528C273.001,372.733 269.691,371.371 266.852,369.536C259.317,364.664 255.075,356.437 253.439,346.47C251.854,354.918 248.232,362.093 242.625,367.043C239.085,370.169 234.751,372.416 229.626,373.533C242.865,377.16 250.848,389.892 253.433,402.139Z" style="fill:white;"/>
                </g>
            </g>
        </g>
    </g>
    <defs>
        <filter id="_Effect1" filterUnits="userSpaceOnUse" x="482.218" y="-11.0499" width="996.894" height="996.894">
            <feGaussianBlur in="SourceGraphic" stdDeviation="42.0569"/>
        </filter>
        <filter id="_Effect2" filterUnits="userSpaceOnUse" x="482.218" y="-11.0499" width="996.894" height="996.894">
            <feGaussianBlur in="SourceGraphic" stdDeviation="42.0569"/>
        </filter>
        <filter id="_Effect3" filterUnits="userSpaceOnUse" x="328.664" y="-164.604" width="1304" height="1304">
            <feGaussianBlur in="SourceGraphic" stdDeviation="67.6493"/>
        </filter>
        <filter id="_Effect4" filterUnits="userSpaceOnUse" x="465.218" y="-28.0505" width="1030.9" height="1030.9">
            <feGaussianBlur in="SourceGraphic" stdDeviation="44.8903"/>
        </filter>
        <filter id="_Effect5" filterUnits="userSpaceOnUse" x="527.721" y="34.4531" width="905.888" height="905.888">
            <feGaussianBlur in="SourceGraphic" stdDeviation="34.4731"/>
        </filter>
    </defs>
</svg>
